<?xml version="1.0" encoding="utf-8"?>
<!-- Generator: Adobe Illustrator 19.0.0, SVG Export Plug-In . SVG Version: 6.00 Build 0)  -->
<svg version="1.1" id="Layer_1" xmlns="http://www.w3.org/2000/svg" xmlns:xlink="http://www.w3.org/1999/xlink" x="0px" y="0px"
	 viewBox="0 0 612 612" style="enable-background:new 0 0 612 612;" xml:space="preserve">
<style type="text/css">
	.st0{display:none;}
	.st1{fill:#FFFFFF;}
	.st2{font-family:'AquireBold';}
	.st3{font-size:123.1798px;}
	.st4{font-size:112.4254px;}
</style>
<g id="Layer_1_1_">
</g>
<g id="Layer_2">
	<rect y="-8.4" class="st0" width="612" height="620.4"/>
	<g>
		<g>
			<g>
				<path class="st1" d="M308.4,30.6c-158.8,0-287.9,129.2-287.9,287.9c0,15.9-0.3,37.8,2.2,52.9c3,0.1,10.4-0.1,12.4,0.4
					c-2.7-15.5-7.8-37-7.8-53.3c0-155.7,125.4-282.3,281.1-282.3s282.3,126.6,282.3,282.3c0,92-47,169.8-115.4,221.3
					c-1.3,1.8,4.3,10.7,7,9.6c69.6-52.6,114-137.2,114-230.9C596.4,159.8,467.2,30.6,308.4,30.6z"/>
				<path class="st1" d="M308.5,37.7h-7.9c-2.5,0.1-5.1,0.1-7.6,0.2c-5.1,0.2-10.3,0.6-15.4,1.1c-10.2,1-20.4,2.5-30.5,4.7
					c-10.1,2.1-20,4.8-29.8,8s-19.4,7-28.8,11.3c-9.4,4.3-18.6,9.1-27.4,14.4c-8.9,5.3-17.5,11.1-25.7,17.3
					c-8.3,6.2-16.2,12.9-23.7,20S97,129.3,90.2,137.2s-13.1,16.2-18.9,24.7c-5.9,8.6-11.3,17.5-16.2,26.7
					c-9.8,18.4-17.5,37.9-23.1,58c-2.8,10.1-5,20.3-6.7,30.6S22.6,298,22,308.4c-0.3,5.2-0.4,10.5-0.4,15.7
					c-0.1,5.3-0.1,10.5-0.1,15.8c0.1,10.5,0.3,21,1.7,31.4l-0.5-0.4l0,0c2,0.1,4.1,0.1,6.2,0.1H32c0.5,0,1,0,1.6,0.1
					c0.5,0,1,0.1,1.6,0.2l-0.6,0.6c-2.1-12.3-4.9-24.5-6.5-36.9c-0.8-6.2-1.4-12.5-1.2-18.7l0.1-4.7l0.2-4.7
					c0.1-3.1,0.3-6.2,0.5-9.4c1.9-24.9,6.9-49.7,15.3-73.2c4.1-11.8,9.1-23.3,14.8-34.5c5.7-11.1,12.1-21.9,19.2-32.2
					c14.2-20.6,31.1-39.3,50.3-55.4c19.1-16.1,40.3-29.8,63-40.3c2.8-1.4,5.7-2.6,8.6-3.8c2.9-1.2,5.8-2.4,8.7-3.5
					c5.8-2.3,11.8-4.3,17.7-6.2c12-3.7,24.1-6.6,36.5-8.7c24.7-4.2,49.9-4.9,74.8-2.5c24.9,2.5,49.5,8.2,72.8,17.2
					c11.7,4.4,23,9.7,34,15.7s21.6,12.7,31.7,20.1c20.2,14.7,38.5,32.2,54.1,51.7c15.7,19.5,28.8,41.1,38.7,64
					c5,11.4,9.2,23.3,12.7,35.3c3.4,12,6.1,24.3,7.8,36.7l0.7,4.6l0.5,4.7c0.4,3.1,0.6,6.2,0.9,9.3c0.4,6.2,0.8,12.5,0.8,18.7
					c0.1,12.5-0.5,25-2.1,37.4c-3.3,24.8-10,49.2-20.1,72c-5.1,11.4-10.9,22.5-17.5,33.2s-13.9,20.8-21.8,30.5
					c-15.7,19.4-34.1,36.8-54,51.9l0.1-0.1c-0.1,0.2-0.1,0.7,0,1.2s0.3,1,0.5,1.4c0.4,1,0.9,1.9,1.5,2.7c0.6,0.9,1.3,1.7,2,2.4
					c0.4,0.3,0.8,0.7,1.2,0.9c0.4,0.2,0.9,0.3,1.1,0.2L482,549c11.8-9.1,23.1-19,33.3-29.9c5.2-5.4,10-11.1,14.7-16.9
					s9-11.9,13.3-18l3.1-4.7l1.5-2.3l1.5-2.4l2.9-4.8l2.8-4.9c0.9-1.6,1.8-3.3,2.7-4.9s1.8-3.3,2.6-4.9c1.6-3.3,3.3-6.7,4.9-10.1
					c6.3-13.5,11.3-27.5,15.4-41.8c1.9-7.2,3.7-14.4,5.1-21.6c1.5-7.3,2.5-14.6,3.4-21.9c1.6-14.7,2.3-29.5,1.7-44.1
					c-0.1-1.9-0.1-3.8-0.3-5.6l-0.4-5.4c-0.1-1.8-0.3-3.7-0.5-5.5c-0.1-1.8-0.4-3.7-0.6-5.5c-0.4-3.6-0.9-7.3-1.4-10.9
					c-0.6-3.6-1.2-7.2-1.9-10.8c-1.4-7.2-3.1-14.3-5-21.3c-1.9-7-4.1-14-6.6-20.9s-5.2-13.6-8.1-20.3c-3-6.6-6.2-13.2-9.6-19.6
					c-3.4-6.4-7.2-12.6-11.1-18.8c-3.9-6.1-8-12.1-12.4-17.9c-4.4-5.8-8.9-11.4-13.7-16.9c-4.8-5.4-9.8-10.7-14.9-15.8
					c-5.1-5.1-10.5-10-16-14.7s-11.2-9.2-17-13.5c-11.7-8.5-24-16.3-36.9-23c-6.4-3.4-13-6.5-19.6-9.4c-6.7-2.9-13.5-5.5-20.3-7.8
					c-13.8-4.7-27.9-8.3-42.3-10.8c-7.2-1.2-14.4-2.2-21.7-2.9C323.1,38.2,315.8,37.8,308.5,37.7L308.5,37.7z M308.4,23.5
					c7.7-0.1,15.4,0.1,23,0.6c7.7,0.5,15.3,1.3,22.9,2.4c15.2,2.2,30.3,5.5,45.1,10.1c7.4,2.3,14.7,4.8,21.8,7.7
					c7.2,2.9,14.3,5.9,21.2,9.4c6.9,3.4,13.7,7.1,20.4,11.1c6.6,4,13.1,8.2,19.4,12.7s12.4,9.2,18.3,14.2s11.6,10.2,17.1,15.7
					s10.7,11.1,15.8,17c5,5.9,9.8,12,14.3,18.2c9.1,12.5,17.1,25.8,24,39.6c3.4,6.9,6.6,13.9,9.5,21.1c2.9,7.2,5.5,14.4,7.8,21.8
					c4.5,14.7,8,29.7,10.1,44.9c0.6,3.8,1,7.6,1.4,11.4c0.3,3.8,0.7,7.6,0.9,11.4c0.1,1.9,0.2,3.8,0.3,5.7c0.1,1.9,0.2,3.8,0.2,5.7
					l0.1,5.8c0,1.9,0,3.8-0.1,5.6c-0.2,15.3-1.8,30.5-4.3,45.5c-1.3,7.5-2.8,14.9-4.7,22.3c-1.8,7.4-4,14.6-6.4,21.8
					c-1.2,3.6-2.4,7.2-3.8,10.7c-1.3,3.6-2.8,7-4.2,10.5c-3,6.9-6.1,13.8-9.6,20.5c-6.8,13.4-14.8,26.3-23.5,38.6
					c-4.4,6.1-9,12.1-13.8,17.8c-1.2,1.5-2.4,2.9-3.7,4.3c-1.2,1.4-2.4,2.9-3.7,4.2c-2.5,2.8-5.1,5.6-7.7,8.2
					c-10.5,10.8-21.8,20.7-33.7,29.8h-0.1h-0.1c-0.4,0.1-0.7,0.2-1.1,0.1c-0.3-0.1-0.6-0.2-0.9-0.3c-0.5-0.3-1-0.7-1.4-1
					c-0.8-0.8-1.5-1.6-2.2-2.6c-0.6-0.9-1.2-1.9-1.6-2.9c-0.2-0.5-0.4-1-0.5-1.6c-0.1-0.3-0.1-0.6-0.1-0.9c0-0.3,0-0.7,0.3-1.1v-0.1
					h0.1c19.9-15.1,38.1-32.3,53.8-51.7c7.9-9.7,15.1-19.8,21.7-30.4c6.5-10.6,12.4-21.7,17.4-33.1c10.1-22.8,16.8-47.1,20.1-71.8
					c1.6-12.4,2.3-24.8,2.1-37.3c0-6.2-0.4-12.5-0.8-18.7c-0.3-3.1-0.5-6.2-0.9-9.3l-0.5-4.6l-0.6-4.6c-1.7-12.3-4.4-24.6-7.8-36.6
					c-3.5-12-7.6-23.8-12.6-35.2c-9.9-22.9-23-44.4-38.6-63.8c-15.6-19.5-33.8-36.8-53.9-51.6c-10-7.4-20.6-14-31.6-20
					c-11-5.9-22.3-11.2-34-15.7c-23.3-9-47.8-14.7-72.6-17.2c-24.8-2.4-50-1.7-74.6,2.5c-12.3,2-24.5,5-36.4,8.6
					c-5.9,1.9-11.9,3.9-17.7,6.1c-2.9,1.1-5.8,2.3-8.7,3.5c-2.8,1.3-5.7,2.5-8.5,3.8c-22.6,10.5-43.8,24.1-62.9,40.2
					s-35.9,34.8-50.1,55.3c-7.1,10.3-13.4,21-19.1,32.1c-5.6,11.1-10.6,22.6-14.7,34.4c-8.3,23.5-13.3,48.2-15.2,73
					c-0.2,3.1-0.4,6.2-0.5,9.3l-0.2,4.7l-0.1,4.7c-0.1,6.2,0.4,12.4,1.2,18.6c1.7,12.4,4.4,24.5,6.5,36.9l0.1,0.7l-0.7-0.1
					c-0.5-0.1-1-0.1-1.5-0.2c-0.5,0-1,0-1.5-0.1h-3.1c-2.1,0-4.1,0-6.2-0.1l0,0h-0.4l-0.1-0.4c-1.8-10.4-2.2-21-2.6-31.5
					c-0.2-5.3-0.2-10.5-0.3-15.8c-0.1-5.3-0.1-10.5,0-15.8c0.2-10.6,1-21.1,2.4-31.6s3.3-20.9,5.8-31.3c2.5-10.3,5.7-20.5,9.3-30.4
					c3.7-10,7.9-19.8,12.6-29.3c4.8-9.5,10-18.8,15.8-27.7c5.8-9,12-17.6,18.7-25.9c6.7-8.3,13.9-16.2,21.5-23.7s15.6-14.6,24-21.3
					c8.4-6.6,17.1-12.9,26.2-18.6c9.1-5.7,18.5-10.9,28.1-15.6c9.7-4.7,19.6-8.8,29.7-12.5c10.1-3.6,20.5-6.6,30.9-9.1
					c10.5-2.5,21.1-4.3,31.8-5.6c5.3-0.7,10.7-1.1,16.1-1.5c2.7-0.2,5.4-0.3,8.2-0.4L308.4,23.5L308.4,23.5z"/>
			</g>
		</g>
		<g>
			<path class="st1" d="M456.2,453.8c-13.1,0-16.7-18.8-27.4-41.6c-1.2-2.6-2.4-5-3.4-7l-16.9-29.6c-0.8-1.6-1.6-3.5-2.3-5.4
				c-0.6-1.6-1.3-3.3-1.9-4.4l-0.3-0.5l-0.2-0.6c-2.5-8.6-6.1-14.8-12.4-21.1c-1.8-1.8-2.3-3.9-2.5-5.3c-0.8-0.7-1.3-1.1-1.7-1.3
				c-3.4,0-8.3-0.1-10.8-4.2c-1.2-1.9-1.4-4.2-0.7-6.4c0.7-4.2,4-7.1,6.7-9.6l0,0c-0.1-0.3-0.3-0.5-0.4-0.8c-1-1.9-2.3-4.5-2.3-7.8
				c0-4.5,3.2-8.5,6.5-10.5c3.1-1.9,6.6-2.2,9.5-0.8c3.5,1.5,6.8,3.3,10,4.9c8.4,4.4,16.4,8.5,25.2,8.5h3.9l1.7,3.5
				c1.2,2.3,3.2,4.6,5.4,6.7c-0.9-2.3-1.9-4.7-2.9-7.1c-2.5-6-5-12.1-7.2-18.6c-0.6-1.8-2.5-4.2-4.3-6.5c-1-1.3-2.1-2.7-3.1-4.2
				c-2.2-2.6-2.6-5.9-2.7-8.1c-1.9-3.9-4.5-7.8-7.3-11.8c-3.3-4.7-6.7-9.6-9-15.1l-0.5-1.2v-9.8l0.7-1.3c0.9-1.9,2.7-5.4,6.3-7.2
				c-1.3-13.3,1.6-27.8,13.9-32.4l2.6-1l2.5,1.2c12.9,6.5,21.1,17.1,28.8,27.7c-1.7-8.4-1.9-16.7-2-24.7c-0.1-8.3-0.3-16.2-2.1-23.9
				v-0.2c-0.6-3.1-1.6-6-2.6-9.1s-2.1-6.4-2.9-10l-0.6-1.5c-6.4-16.6-13-33.8-26.9-40.8c-19.8-8.6-42.3-2.8-65.6,4.5l-0.9,0.3h-9.8
				c-0.9,0.4-2,1.4-3.1,2.4c-2.9,2.5-7,6-13.3,6h-0.6l-0.6-0.1c-7.4-1.5-11-1.8-13.9,1.1c-0.1,0.1-0.2,0.3-0.3,0.4
				c-0.8,1.2-1.8,2.5-3.5,3.8l-1.8,3.5l-3.8,1.3c-7.7,2.6-13,4.6-14.6,8.8l1.1,8.5l-9.4-3c-2.5-0.4-9.9,4.1-10.8,6.6
				c-0.1,0.5-0.2,1.3-0.2,2.1c-0.1,2.8-0.5,9.3-8,11.5c-2.8,0.8-5.7,1.1-8.2,1.4c-1.6,0.2-3.1,0.3-4.5,0.6c-0.9,0.2-1.1,0.2-1.2,1.9
				l-0.6,11.1l-9.3-6.2c-2.1-1.4-3.2-1.3-8.1,1.1c-1.6,0.8-3.4,1.6-5.4,2.3c-0.8,0.3-1.6,0.5-2.3,0.6c-0.3,0.1-0.7,0.1-1,0.2l0,0
				c-7.5,6-15.1,10.5-22.6,13.6l-0.3,0.1c-2.8,0.9-5.9,1.7-9.1,2.5c-10.4,2.6-18.2,5-20.8,10c9.4,6.6,19.6,11.2,31.2,16.4
				c2.1,0.9,4.2,1.9,6.3,2.9l0.5,0.3c7.1,4,12.3,11.3,14.1,19.3c1.5,6.9,0.2,13.7-3.6,19.2c-1.2,1.8-2.8,3.2-4.2,4.5
				c-0.6,0.5-1.4,1.2-1.9,1.7c0.1,0.1,0.1,0.2,0.2,0.3l0.4,0.5l0.2,0.5c0.3,0.3,1.1,1,1.8,1.5c1.8,1.4,4.3,3.3,6.3,6.4l1.1,1.6v1.9
				c0,0.3,0,0.6,0.1,0.9c0.4,3.7-0.1,6.9-3.8,11.1c-0.6,2-0.2,4.9,0.3,8c0.3,2.2,0.7,4.5,0.7,6.7c0,10.8-8.2,18.5-14.9,24.7
				c-1.2,1.1-2.3,2.2-3.4,3.2c-0.5,1.2,0.5,3.6,1.8,6.7c0.8,1.8,1.5,3.6,2.1,5.5c6.8,17-6.8,30.2-16.8,39.8c-2.6,2.5-5,4.8-6.9,7
				l-1.4,1.6l-2.1,0.4c-30,5.7-62.3,0.5-91.1-14.6l-0.6-0.3c-8.1-5.4-13.1-7.2-17.3-5.9c-0.1,0.5-0.2,1.2-0.3,1.6
				c-0.4,2.6-1,6.2-3.9,9l-3,3l-3.9-1.7C47.9,391,37.8,385.2,28,379.6l-0.4-0.2c-6.3-4.2-9-12.5-6.7-20.5l12.1,3.4
				c-0.8,2.7-0.2,5.3,1.4,6.5c7.4,4.2,14.9,8.5,22.3,12.1c0.5-2.3,1.3-4.9,3.5-7l0.7-0.7l0.9-0.5c12.7-6.3,25.1,1.7,31.3,5.8
				c25.5,13.4,54,18.2,80.5,13.6c1.9-2,3.9-4,6.1-6.1c10.7-10.3,17.4-17.7,13.8-26.3l-0.2-0.4l-0.1-0.5c-0.3-1.1-0.9-2.5-1.5-4
				c-2.2-5-5.4-12.6-0.2-19.5l0.6-0.7c1.3-1.3,2.8-2.7,4.1-3.9c5.3-5,10.9-10.1,10.9-15.4c0-1.4-0.3-3.1-0.5-4.9
				c-0.7-4.7-1.6-10.6,1.2-16.2l0.5-0.9l0.7-0.7c0.7-0.7,1-1.1,1.2-1.3c0-0.1,0-0.2,0-0.3c-0.8-0.8-1.7-1.5-2.7-2.3
				c-1.7-1.3-3.6-2.8-4.9-5c-7.2-9.5,0.9-16.6,3.5-19c0.8-0.7,1.8-1.6,2.1-2l0.1-0.2c2.3-3.2,2.2-6.8,1.6-9.2c-1-4.5-4-8.6-7.8-10.9
				c-2-0.9-4-1.8-6-2.7c-13.2-5.9-25.6-11.5-37.1-20.4l-2.7-2.1l0.3-3.4c1.5-16.7,18.7-21,31.2-24.2c2.9-0.7,5.7-1.4,8-2.2
				c6.3-2.5,12.7-6.4,19.1-11.5c2.3-2.1,5.2-2.6,6.8-2.9c0.1,0,0.2,0,0.3-0.1c1.3-0.4,2.7-1.1,4.1-1.8c3.4-1.6,7.9-3.9,13.2-3.2
				c1.9-3,5-5,9-5.8c1.9-0.4,3.8-0.6,5.6-0.8c1.7-0.2,3.3-0.3,4.8-0.7c0-0.1,0-0.2,0-0.3c0.1-1.2,0.1-2.8,0.6-4.5
				c1.6-6.7,9.2-11.4,11.4-12.7c1.5-0.9,3.7-1.9,6.1-2.7c1-1.3,2.5-2.1,4.2-2.4c4.5-6.6,12.5-9.6,19.1-11.8l1.2-2.3l1.9-0.9
				c0.3-0.1,0.4-0.2,0.4-0.2c0.1-0.1,0.2-0.3,0.3-0.4c0.4-0.6,1-1.5,1.9-2.4c7.7-7.7,17.3-6.1,24.6-4.7c1.3-0.2,2.4-1.1,4.6-2.9
				c2.2-1.9,5-4.3,8.8-5.3l0.8-0.2h9.6c24.4-7.6,50.1-14,73.6-3.7l0.3,0.1c18.4,9.2,26.2,29.6,33.2,47.7l1,2.5l0.1,0.5
				c0.6,3.1,1.6,6,2.6,9.1c1.1,3.3,2.2,6.6,3,10.5c2.1,9,2.2,17.9,2.4,26.5c0.2,9.6,0.3,18.7,3.1,27.7c1.3,4.1,0.9,7.3,0.6,10
				c-0.1,1.1-0.3,2.1-0.3,3.2v3.9l-10.9,5.4l-3.2-4c-2.9-3.6-5.6-7.5-8.3-11.1c-7-9.8-13.6-19-23.2-24.8c-4.2,3.9-4.4,13.4-3.3,20.8
				c0.3,1.1,0.4,2.1,0.5,2.9l1.7,8.2l-0.7-0.1l0.1,0.9l-8.5-1.8c-0.1,0-0.2,0-0.2,0c-0.1,0-0.1,0-0.2,0v4.1
				c1.9,3.9,4.5,7.8,7.3,11.8c3.3,4.7,6.7,9.6,9,15.1l0.5,1.2v1.3c0,0.4,0,1.2,0.1,1.7l0.3,0.4c0.8,1.2,1.8,2.5,2.8,3.8
				c2.5,3.2,5,6.5,6.3,10.3c2,6.1,4.4,11.8,6.9,17.8s5,12.1,7.2,18.6l0.3,1v1c0,3.7-2.5,6.5-3.3,7.3l-1.8,1.8h-2.6
				c-3.7,0-8.2,0-11.5-3.3c-1-1-2-1.9-3.1-2.9c-2.9-2.7-6.2-5.7-8.7-9.4c-10.2-0.9-18.9-5.4-27.3-9.8c-2.3-1.2-4.7-2.4-7.1-3.6
				c0.1,0.3,0.3,0.6,0.4,0.8c1.2,2.3,3.2,6.3,1.6,11.1l-0.5,1.4l-1.1,1.1c-0.5,0.5-0.9,0.9-1.4,1.4c3.2,1.3,5.7,3.8,7,5.1
				c1.9,1.9,2.4,3.9,2.5,5.3c7.1,7.4,11.5,15,14.4,24.9c0.7,1.5,1.4,3.2,2.1,4.8c0.6,1.5,1.3,3.1,1.8,4.3l16.9,29.6
				c1.1,2.1,1.4,5,2.1,8c1.6,7.3,7.4,20,12.1,27.3c6.6,10.3,12.1,10.9,12,10.9l0.2,8.3C462.9,453.8,456.3,453.8,456.2,453.8z"/>
		</g>
		<g>
			<path class="st1" d="M482.8,548.5c-1,0-2-0.1-3.1-0.4l-1.2-0.3l-1-0.8c-7.8-5.9-11.5-14.5-10-23.3c0.5-7.6,8.9-13.1,15.1-16.8
				c-3.6-6.6-11.7-19.4-15.9-27.5c-2.1-4-2.5-8.6-1.1-12.9h2.5c2.7,3.9,10.4,14.4,15.1,22.5c10.3,17.8,13.8,18.1,13.8,20
				c0,4-2.9,5.7-6.9,8.1c-2.2,1.3-8.9,5.4-10,7.6v0.3l-0.1,0.6c-0.8,4.1,1,7.3,3,9.4l0,0c1.5-1.6,3.7-4.2,7.6-4.8l1.8,12.5
				c0.7-0.1,1.1-0.4,1.1-0.4c-0.2,0.1-0.6,0.6-0.9,1C491.1,545,488,548.5,482.8,548.5z"/>
		</g>
		<text transform="matrix(1 0 0 1 36.7884 495.2332)" class="st1 st2 st3">WIK</text>
		<text transform="matrix(0.942 0 0 1 8.5005 600.6553)" class="st1 st2 st4">WIZARD</text>
	</g>
</g>
</svg>
